<svg width="11" height="11" viewBox="0 0 11 11" fill="none" xmlns="http://www.w3.org/2000/svg">
<path id="Vector" d="M3.30305 11C3.00027 11 2.74117 10.8924 2.52573 10.6772C2.30993 10.4616 2.20203 10.2025 2.20203 9.9C2.20203 9.5975 2.30993 9.33845 2.52573 9.12285C2.74117 8.90762 3.00027 8.8 3.30305 8.8C3.60583 8.8 3.86494 8.90762 4.08037 9.12285C4.29617 9.33845 4.40407 9.5975 4.40407 9.9C4.40407 10.2025 4.29617 10.4616 4.08037 10.6772C3.86494 10.8924 3.60583 11 3.30305 11ZM8.80814 11C8.50536 11 8.24625 10.8924 8.03082 10.6772C7.81502 10.4616 7.70712 10.2025 7.70712 9.9C7.70712 9.5975 7.81502 9.33845 8.03082 9.12285C8.24625 8.90762 8.50536 8.8 8.80814 8.8C9.11092 8.8 9.37021 8.90762 9.58601 9.12285C9.80144 9.33845 9.90916 9.5975 9.90916 9.9C9.90916 10.2025 9.80144 10.4616 9.58601 10.6772C9.37021 10.8924 9.11092 11 8.80814 11ZM2.83512 2.2L4.15634 4.95H8.0099L9.5238 2.2H2.83512ZM2.31214 1.1H10.4321C10.6432 1.1 10.8037 1.19387 10.9138 1.3816C11.0239 1.5697 11.0285 1.76 10.9276 1.9525L8.97329 5.4725C8.87236 5.65583 8.73694 5.79792 8.56702 5.89875C8.39746 5.99958 8.21175 6.05 8.0099 6.05H3.90861L3.30305 7.15H9.90916V8.25H3.30305C2.89017 8.25 2.57822 8.06887 2.36719 7.7066C2.15616 7.3447 2.14698 6.985 2.33966 6.6275L3.08285 5.28L1.10102 1.1H0V0H1.78915L2.31214 1.1ZM4.15634 4.95H8.0099H4.15634Z" fill="white"/>
</svg>
